<?xml version="1.0"?>
<svg xmlns="http://www.w3.org/2000/svg" xmlns:xlink="http://www.w3.org/1999/xlink" version="1.1" id="Layer_1" x="0px" y="0px" viewBox="0 0 459.46 459.46" style="enable-background:new 0 0 459.46 459.46;" xml:space="preserve" width="512px" height="512px" class=""><g><g>
	<g>
		<g>
			<circle cx="63.444" cy="164.99" r="33.614" data-original="#000000" class="active-path" data-old_color="#000000" fill="#FFFFFF"/>
			<path d="M247.869,133.679c14.773-9.149,34.411-4.813,43.763,10.287c9.204,14.859,4.69,34.49-10.286,43.763l-55.088,34.12     c-12.236,7.578-26.712,4.936-33.047,0.016l-6.261-4.864c-0.014,3.708,0.054,7.537,0.21,11.489     c0.174,4.372,3.767,7.832,8.143,7.832h235.233c3.697,0,6.931-2.487,7.881-6.059l4.705-17.695     c5.082-31.254-16.53-57.652-46.951-66.437c-61.654-17.804-138.057-30.966-175.366-29.91c0,0-15.22,11.639-25.251,42.163     l9.67,1.706L247.869,133.679z" data-original="#000000" class="active-path" data-old_color="#000000" fill="#FFFFFF"/>
			<path d="M433.044,306.512c-2.291,0-4.515,0.294-6.636,0.845c0-10.193,0-40.763,0-50.909c-8.568,0-219.89,0-231.105,0     c-15.365,0-27.655-12.08-28.253-27.16c-0.385-9.711-0.249-19.391,0.254-27.546l-26.464-20.555l61.922,28.38     c4.913,2.251,10.698,1.893,15.298-0.956l55.088-34.12c6.956-4.307,10.243-13.587,5.247-22.331     c-4.742-7.653-14.779-9.921-22.327-5.246l-47.695,29.541l-56.075-25.7l23.251,4.101c3.242-10.436,7.53-20.72,13.175-30.352     l-58.119-1.067c-12.741-0.234-22.893,9.994-23.12,22.284c0,0,0,0.001,0,0.002l-0.743,40.487     c-0.199,10.838,7.378,20.408,18.029,22.636H20.133v-98.664c0-5.558-4.505-10.063-10.063-10.063     c-5.558,0-10.063,4.505-10.063,10.063c0,234.967-0.044,221.928,0.082,222.966c0.12,14.463,11.919,26.194,26.41,26.194     c14.565,0,26.415-11.85,26.415-26.415s-11.85-26.415-26.415-26.415c-2.195,0-4.326,0.274-6.366,0.78c0-19.282,0-16.721,0-30.017     h386.15v54.645c0,14.768,11.594,27.422,26.762,27.422c14.565,0,26.415-11.85,26.415-26.415S447.61,306.512,433.044,306.512z" data-original="#000000" class="active-path" data-old_color="#000000" fill="#FFFFFF"/>
		</g>
	</g>
</g></g> </svg>
