<?xml version="1.0"?>
<svg xmlns="http://www.w3.org/2000/svg" height="512px" viewBox="0 -92 464 464" width="512px"><g><path d="m48 88h7.703125c-.832031-16.296875-3.503906-32.335938-7.96875-47.976562-13.109375.152343-23.734375 10.832031-23.734375 23.976562 0 13.230469 10.769531 24 24 24zm0 0" data-original="#000000" class="active-path" data-old_color="#000000" fill="#FFFFFF"/><path d="m46.863281 104c.671875 2.574219 1.136719 5.222656 1.136719 8s-.464844 5.425781-1.136719 8h9.136719v-16zm0 0" data-original="#000000" class="active-path" data-old_color="#000000" fill="#FFFFFF"/><path d="m408 233.136719c2.574219-.671875 5.222656-1.136719 8-1.136719s5.425781.464844 8 1.136719v-97.136719h-1.542969c-2.34375 8.9375-7.480469 16.648438-14.457031 22.3125zm0 0" data-original="#000000" class="active-path" data-old_color="#000000" fill="#FFFFFF"/><path d="m32 112c0 8.835938-7.164062 16-16 16s-16-7.164062-16-16 7.164062-16 16-16 16 7.164062 16 16zm0 0" data-original="#000000" class="active-path" data-old_color="#000000" fill="#FFFFFF"/><path d="m72 264c0 8.835938-7.164062 16-16 16s-16-7.164062-16-16 7.164062-16 16-16 16 7.164062 16 16zm0 0" data-original="#000000" class="active-path" data-old_color="#000000" fill="#FFFFFF"/><path d="m48 233.136719c2.574219-.671875 5.222656-1.136719 8-1.136719s5.425781.464844 8 1.136719v-78.785157c-4.136719-5.167968-6.816406-11.441406-7.59375-18.351562h-8.40625zm0 0" data-original="#000000" class="active-path" data-old_color="#000000" fill="#FFFFFF"/><path d="m424 104h40v16h-40zm0 0" data-original="#000000" class="active-path" data-old_color="#000000" fill="#FFFFFF"/><path d="m352.808594 157.199219-23.855469-21.199219h-201.359375c-2.019531 17.953125-17.113281 32-35.59375 32-4.230469 0-8.230469-.863281-12-2.207031v18.207031h312v-17.542969c-3.464844.902344-7.03125 1.542969-10.785156 1.542969-10.480469 0-20.574219-3.832031-28.40625-10.800781zm0 0" data-original="#000000" class="active-path" data-old_color="#000000" fill="#FFFFFF"/><path d="m432 264c0 8.835938-7.164062 16-16 16s-16-7.164062-16-16 7.164062-16 16-16 16 7.164062 16 16zm0 0" data-original="#000000" class="active-path" data-old_color="#000000" fill="#FFFFFF"/><path d="m458.054688 48c-2.558594 0-4.832032 1.632812-5.648438 4.0625l-6.636719 19.9375h-21.769531v16h40v-34.054688c0-3.28125-2.664062-5.945312-5.945312-5.945312zm0 0" data-original="#000000" class="active-path" data-old_color="#000000" fill="#FFFFFF"/><path d="m156 104c-11.128906 0-20.679688 6.574219-25.191406 16h180.144531l-10.042969-8.929688c-5.125-4.558593-11.734375-7.070312-18.597656-7.070312zm0 0" data-original="#000000" class="active-path" data-old_color="#000000" fill="#FFFFFF"/><path d="m112 132c0-24.265625 19.742188-44 44-44h126.3125c10.792969 0 21.167969 3.953125 29.230469 11.121094l51.882812 46.125c4.910157 4.355468 11.230469 6.753906 17.789063 6.753906 14.769531 0 26.785156-12.007812 26.785156-26.777344v-85.222656h-19.910156c-14.402344 0-28.433594-2.808594-41.707032-8.34375-50.414062-21-103.671874-31.65625-158.292968-31.65625-44.152344 0-87.769532 7.046875-129.648438 20.960938 9 25.101562 13.558594 51.34375 13.558594 78.117187v32.921875c0 11.023438 8.96875 20 20 20s20-8.976562 20-20zm0 0" data-original="#000000" class="active-path" data-old_color="#000000" fill="#FFFFFF"/><path d="m80 200h312v16h-312zm0 0" data-original="#000000" class="active-path" data-old_color="#000000" fill="#FFFFFF"/></g> </svg>
