<?xml version="1.0"?>
<svg xmlns="http://www.w3.org/2000/svg" height="512px" viewBox="-44 0 472 472.0015" width="512px" class=""><g><path d="m204.109375 284v-41h-24v41c0 4.417969-3.582031 8-8 8h-41v24h41c4.417969 0 8 3.582031 8 8v41h24v-41c0-4.417969 3.582031-8 8-8h41v-24h-41c-4.417969 0-8-3.582031-8-8zm0 0" data-original="#000000" class="active-path" data-old_color="#000000" fill="#FFFFFF"/><path d="m353.65625 136.882812c-.484375-3.996093-3.921875-6.976562-7.949219-6.882812h-51.597656v-36.035156c0-51.8125-44.523437-93.964844-99-93.964844-54.480469 0-99 42.152344-99 93.964844v36.035156h-57.601563c-4.023437-.09375-7.460937 2.886719-7.945312 6.882812l-30.136719 261.835938c-2.117187 18.210938 3.753907 36.445312 16.097657 50 13.523437 14.945312 32.777343 23.414062 52.929687 23.28125h245.308594c20.167969.113281 39.421875-8.378906 52.941406-23.339844 12.339844-13.574218 18.207031-31.820312 16.089844-50.042968zm-84.546875 187.117188c0 4.417969-3.582031 8-8 8h-41v41c0 4.417969-3.582031 8-8 8h-40c-4.417969 0-8-3.582031-8-8v-41h-41c-4.417969 0-8-3.582031-8-8v-40c0-4.417969 3.582031-8 8-8h41v-41c0-4.417969 3.582031-8 8-8h40c4.417969 0 8 3.582031 8 8v41h41c4.417969 0 8 3.582031 8 8zm9-194h-166v-36.035156c0-42.988282 37.34375-77.964844 83-77.964844s83 34.976562 83 77.964844zm0 0" data-original="#000000" class="active-path" data-old_color="#000000" fill="#FFFFFF"/></g> </svg>
